<svg width="24" height="24" viewBox="0 0 24 24" fill="none" xmlns="http://www.w3.org/2000/svg">
<path d="M22.707 6.29301L17.707 1.29301C17.316 0.902006 16.684 0.902006 16.293 1.29301L14 3.58601L16.699 6.29401L15.283 7.70601L12.585 5.00001L11 6.58601L12.707 8.29201L11.293 9.70701L9.586 8.00001L8 9.58601L10.707 12.293L9.293 13.707L6.586 11L5 12.586L6.706 14.292L5.292 15.706L3.586 14L1.293 16.293C0.901998 16.684 0.901998 17.316 1.293 17.707L6.293 22.707C6.488 22.902 6.744 23 7 23C7.256 23 7.512 22.902 7.707 22.707L22.707 7.70701C23.098 7.31601 23.098 6.68401 22.707 6.29301Z" fill="black"/>
</svg>
