<svg width="24" height="24" viewBox="0 0 24 24" fill="none" xmlns="http://www.w3.org/2000/svg">
<path d="M13.0002 1C15.2831 1.20704 17.3675 2.11002 19.0344 3.50098L16.9504 5.58496L18.3645 6.99902L20.4485 4.91504C21.8383 6.583 22.7424 8.66633 22.9494 10.9492H20.0002V12.9492H22.9436C22.7023 15.6357 21.5061 18.1017 19.5364 19.9492H19.5461C17.5764 21.8078 14.9222 22.9492 12.0002 22.9492C9.07829 22.9492 6.42411 21.8078 4.45432 19.9492H4.46506C2.49547 18.1017 1.2991 15.6356 1.05783 12.9492H4.00022V10.9492H1.051C1.258 8.66623 2.16099 6.58203 3.55198 4.91504L10.0744 11.4365C10.0304 11.6005 9.99924 11.7702 9.99924 11.9482C9.99937 13.0511 10.8963 13.9482 11.9992 13.9482C13.102 13.9481 13.9991 13.0511 13.9992 11.9482C13.9992 10.8453 13.1021 9.94837 11.9992 9.94824C11.8222 9.94824 11.6515 9.97944 11.4875 10.0234L4.96604 3.50098C6.63403 2.11099 8.71723 1.207 11.0002 1V3.94922H13.0002V1Z" fill="black"/>
</svg>
