<svg width="24" height="24" viewBox="0 0 24 24" fill="none" xmlns="http://www.w3.org/2000/svg">
<path fill-rule="evenodd" clip-rule="evenodd" d="M11.9687 2C13.9708 2 15.5937 3.62297 15.5937 5.625C15.5937 6.65806 15.1611 7.5897 14.4678 8.25H18.0684C18.553 8.25021 18.968 8.59795 19.0527 9.0752L21.1357 20.8252C21.2443 21.4376 20.7732 21.9997 20.1514 22H3.84863C3.22675 21.9997 2.75569 21.4376 2.86426 20.8252L4.94726 9.0752C5.03197 8.59795 5.44695 8.2502 5.93164 8.25H9.46972C8.77635 7.5897 8.34375 6.65806 8.34375 5.625C8.34375 3.62297 9.96671 2 11.9687 2ZM11.9687 4C11.0713 4 10.3437 4.72754 10.3437 5.625C10.3437 6.52246 11.0713 7.25 11.9687 7.25C12.8662 7.25 13.5937 6.52246 13.5937 5.625C13.5937 4.72754 12.8662 4 11.9687 4Z" fill="black"/>
</svg>
