<svg width="34" height="34" viewBox="0 0 34 34" fill="none" xmlns="http://www.w3.org/2000/svg">
<path opacity="0.2" d="M34 17C34 26.3888 26.3888 34 17 34C7.61116 34 0 26.3888 0 17C0 7.61116 7.61116 0 17 0C26.3888 0 34 7.61116 34 17ZM4.25 17C4.25 24.0416 9.95837 29.75 17 29.75C24.0416 29.75 29.75 24.0416 29.75 17C29.75 9.95837 24.0416 4.25 17 4.25C9.95837 4.25 4.25 9.95837 4.25 17Z" fill="black"/>
<path d="M17 0C19.6828 0 22.3275 0.634934 24.7178 1.85289C27.1082 3.07084 29.1764 4.83724 30.7533 7.00765C32.3302 9.17806 33.371 11.6909 33.7907 14.3406C34.2104 16.9904 33.997 19.7018 33.168 22.2533L29.126 20.94C29.7477 19.0264 29.9078 16.9928 29.593 15.0055C29.2783 13.0182 28.4976 11.1335 27.315 9.50574C26.1323 7.87793 24.5812 6.55313 22.7884 5.63967C20.9956 4.7262 19.0121 4.25 17 4.25V0Z" fill="black"/>
<g clip-path="url(#clip0_34_78)">
<path d="M24.5 21H18.5L13.5 19V21H9.5V13H10.5C10.5 13 11.6 14 13 14C14.4 14 15.5 13 15.5 13H16.5L21.5 17L24 17.6C24.9 17.8 25.5 18.6 25.5 19.5V20C25.5 20.6 25.1 21 24.5 21Z" fill="black"/>
</g>
<defs>
<clipPath id="clip0_34_78">
<rect width="16" height="16" fill="white" transform="translate(9.5 9)"/>
</clipPath>
</defs>
</svg>
