<svg width="34" height="34" viewBox="0 0 34 34" fill="none" xmlns="http://www.w3.org/2000/svg">
<path opacity="0.2" d="M34 17C34 26.3888 26.3888 34 17 34C7.61116 34 0 26.3888 0 17C0 7.61116 7.61116 0 17 0C26.3888 0 34 7.61116 34 17ZM4.25 17C4.25 24.0416 9.95837 29.75 17 29.75C24.0416 29.75 29.75 24.0416 29.75 17C29.75 9.95837 24.0416 4.25 17 4.25C9.95837 4.25 4.25 9.95837 4.25 17Z" fill="black"/>
<path d="M17 0C20.59 0 24.0879 1.13653 26.9923 3.24671C29.8968 5.35689 32.0586 8.33237 33.168 11.7467C34.2773 15.161 34.2773 18.839 33.168 22.2533C32.0586 25.6676 29.8968 28.6431 26.9923 30.7533L24.4943 27.315C26.6726 25.7323 28.2939 23.5007 29.126 20.94C29.958 18.3792 29.958 15.6208 29.126 13.06C28.2939 10.4993 26.6726 8.26767 24.4943 6.68503C22.316 5.1024 19.6925 4.25 17 4.25V0Z" fill="black"/>
<g clip-path="url(#clip0_34_90)">
<path d="M24.5 21H18.5L13.5 19V21H9.5V13H10.5C10.5 13 11.6 14 13 14C14.4 14 15.5 13 15.5 13H16.5L21.5 17L24 17.6C24.9 17.8 25.5 18.6 25.5 19.5V20C25.5 20.6 25.1 21 24.5 21Z" fill="black"/>
</g>
<defs>
<clipPath id="clip0_34_90">
<rect width="16" height="16" fill="white" transform="translate(9.5 9)"/>
</clipPath>
</defs>
</svg>
