<svg width="34" height="34" viewBox="0 0 34 34" fill="none" xmlns="http://www.w3.org/2000/svg">
<path opacity="0.2" d="M34 17C34 26.3888 26.3888 34 17 34C7.61116 34 0 26.3888 0 17C0 7.61116 7.61116 0 17 0C26.3888 0 34 7.61116 34 17ZM4.25 17C4.25 24.0416 9.95837 29.75 17 29.75C24.0416 29.75 29.75 24.0416 29.75 17C29.75 9.95837 24.0416 4.25 17 4.25C9.95837 4.25 4.25 9.95837 4.25 17Z" fill="black"/>
<path d="M17 0C21.0478 0 24.9627 1.44429 28.0406 4.0731C31.1186 6.7019 33.1575 10.3427 33.7907 14.3406C34.4239 18.3385 33.6098 22.4312 31.4949 25.8825C29.3799 29.3338 26.1029 31.9171 22.2533 33.168L20.94 29.126C23.8272 28.1879 26.285 26.2503 27.8712 23.6619C29.4574 21.0734 30.0679 18.0039 29.593 15.0055C29.1181 12.007 27.5889 9.27643 25.2805 7.30482C22.972 5.33322 20.0358 4.25 17 4.25V0Z" fill="black"/>
<g clip-path="url(#clip0_34_96)">
<path d="M24.5 21H18.5L13.5 19V21H9.5V13H10.5C10.5 13 11.6 14 13 14C14.4 14 15.5 13 15.5 13H16.5L21.5 17L24 17.6C24.9 17.8 25.5 18.6 25.5 19.5V20C25.5 20.6 25.1 21 24.5 21Z" fill="black"/>
</g>
<defs>
<clipPath id="clip0_34_96">
<rect width="16" height="16" fill="white" transform="translate(9.5 9)"/>
</clipPath>
</defs>
</svg>
