<svg width="34" height="34" viewBox="0 0 34 34" fill="none" xmlns="http://www.w3.org/2000/svg">
<path opacity="0.2" d="M34 17C34 26.3888 26.3888 34 17 34C7.61116 34 0 26.3888 0 17C0 7.61116 7.61116 0 17 0C26.3888 0 34 7.61116 34 17ZM4.25 17C4.25 24.0416 9.95837 29.75 17 29.75C24.0416 29.75 29.75 24.0416 29.75 17C29.75 9.95837 24.0416 4.25 17 4.25C9.95837 4.25 4.25 9.95837 4.25 17Z" fill="black"/>
<path d="M17 0C19.4574 0 21.8856 0.532758 24.1172 1.56157C26.3489 2.59037 28.331 4.09077 29.9269 5.95938C31.5228 7.82799 32.6947 10.0204 33.3617 12.3855C34.0288 14.7506 34.1751 17.2323 33.7907 19.6594C33.4063 22.0865 32.5002 24.4015 31.135 26.4447C29.7697 28.4879 27.9777 30.2109 25.8825 31.4949C23.7872 32.7789 21.4385 33.5933 18.9981 33.8822C16.5578 34.171 14.0838 33.9273 11.7467 33.168L13.06 29.126C14.8129 29.6955 16.6683 29.8782 18.4986 29.6616C20.3289 29.445 22.0904 28.8341 23.6619 27.8712C25.2333 26.9082 26.5773 25.616 27.6012 24.0835C28.6252 22.5511 29.3047 20.8149 29.593 18.9945C29.8813 17.1742 29.7716 15.313 29.2713 13.5391C28.771 11.7653 27.8921 10.121 26.6952 8.71954C25.4982 7.31808 24.0117 6.19278 22.3379 5.42117C20.6642 4.64957 18.843 4.25 17 4.25V0Z" fill="black"/>
<g clip-path="url(#clip0_34_108)">
<path d="M24.5 21H18.5L13.5 19V21H9.5V13H10.5C10.5 13 11.6 14 13 14C14.4 14 15.5 13 15.5 13H16.5L21.5 17L24 17.6C24.9 17.8 25.5 18.6 25.5 19.5V20C25.5 20.6 25.1 21 24.5 21Z" fill="black"/>
</g>
<defs>
<clipPath id="clip0_34_108">
<rect width="16" height="16" fill="white" transform="translate(9.5 9)"/>
</clipPath>
</defs>
</svg>
