<svg width="34" height="34" viewBox="0 0 34 34" fill="none" xmlns="http://www.w3.org/2000/svg">
<path opacity="0.2" d="M34 17C34 26.3888 26.3888 34 17 34C7.61116 34 0 26.3888 0 17C0 7.61116 7.61116 0 17 0C26.3888 0 34 7.61116 34 17ZM4.25 17C4.25 24.0416 9.95837 29.75 17 29.75C24.0416 29.75 29.75 24.0416 29.75 17C29.75 9.95837 24.0416 4.25 17 4.25C9.95837 4.25 4.25 9.95837 4.25 17Z" fill="black"/>
<path d="M17 0C19.9087 0 22.7687 0.746319 25.3066 2.16757C27.8444 3.58882 29.9751 5.63746 31.4949 8.11753C33.0147 10.5976 33.8727 13.4261 33.9869 16.3326C34.1011 19.239 33.4676 22.1262 32.1471 24.7178C30.8266 27.3095 28.8632 29.519 26.4447 31.135C24.0262 32.751 21.2335 33.7194 18.3338 33.9476C15.4341 34.1758 12.5243 33.6562 9.88278 32.4384C7.24127 31.2207 4.9564 29.3455 3.24671 26.9923L6.68503 24.4943C7.9673 26.2591 9.68095 27.6655 11.6621 28.5788C13.6432 29.4921 15.8256 29.8819 18.0004 29.7107C20.1751 29.5395 22.2697 28.8132 24.0835 27.6012C25.8974 26.3893 27.3699 24.7321 28.3603 22.7884C29.3507 20.8446 29.8258 18.6793 29.7402 16.4994C29.6545 14.3196 29.011 12.1982 27.8712 10.3381C26.7313 8.47809 25.1333 6.94161 23.2299 5.87568C21.3266 4.80974 19.1815 4.25 17 4.25V0Z" fill="black"/>
<g clip-path="url(#clip0_34_120)">
<path d="M24.5 21H18.5L13.5 19V21H9.5V13H10.5C10.5 13 11.6 14 13 14C14.4 14 15.5 13 15.5 13H16.5L21.5 17L24 17.6C24.9 17.8 25.5 18.6 25.5 19.5V20C25.5 20.6 25.1 21 24.5 21Z" fill="black"/>
</g>
<defs>
<clipPath id="clip0_34_120">
<rect width="16" height="16" fill="white" transform="translate(9.5 9)"/>
</clipPath>
</defs>
</svg>
