<svg width="34" height="34" viewBox="0 0 34 34" fill="none" xmlns="http://www.w3.org/2000/svg">
<path opacity="0.2" d="M34 17C34 26.3888 26.3888 34 17 34C7.61116 34 0 26.3888 0 17C0 7.61116 7.61116 0 17 0C26.3888 0 34 7.61116 34 17ZM4.25 17C4.25 24.0416 9.95837 29.75 17 29.75C24.0416 29.75 29.75 24.0416 29.75 17C29.75 9.95837 24.0416 4.25 17 4.25C9.95837 4.25 4.25 9.95837 4.25 17Z" fill="black"/>
<path d="M17 0C20.1352 0 23.2093 0.86699 25.8825 2.50512C28.5557 4.14324 30.7238 6.4887 32.1471 9.28216C33.5705 12.0756 34.1936 15.2083 33.9476 18.3338C33.7016 21.4593 32.5961 24.4559 30.7533 26.9923C28.9105 29.5288 26.4021 31.5062 23.5056 32.706C20.6091 33.9057 17.4372 34.2812 14.3406 33.7907C11.244 33.3003 8.34339 31.963 5.95938 29.9269C3.57537 27.8908 1.80086 25.235 0.83204 22.2533L4.87403 20.94C5.60065 23.1763 6.93153 25.1681 8.71954 26.6952C10.5075 28.2223 12.683 29.2252 15.0055 29.593C17.3279 29.9609 19.7068 29.6793 21.8792 28.7795C24.0516 27.8796 25.9329 26.3966 27.315 24.4943C28.6971 22.592 29.5262 20.3445 29.7107 18.0004C29.8952 15.6562 29.4278 13.3067 28.3603 11.2116C27.2928 9.11652 25.6667 7.35743 23.6619 6.12884C21.657 4.90024 19.3514 4.25 17 4.25V0Z" fill="black"/>
<g clip-path="url(#clip0_34_126)">
<path d="M24.5 21H18.5L13.5 19V21H9.5V13H10.5C10.5 13 11.6 14 13 14C14.4 14 15.5 13 15.5 13H16.5L21.5 17L24 17.6C24.9 17.8 25.5 18.6 25.5 19.5V20C25.5 20.6 25.1 21 24.5 21Z" fill="black"/>
</g>
<defs>
<clipPath id="clip0_34_126">
<rect width="16" height="16" fill="white" transform="translate(9.5 9)"/>
</clipPath>
</defs>
</svg>
