<svg width="34" height="34" viewBox="0 0 34 34" fill="none" xmlns="http://www.w3.org/2000/svg">
<path opacity="0.2" d="M34 17C34 26.3888 26.3888 34 17 34C7.61116 34 0 26.3888 0 17C0 7.61116 7.61116 0 17 0C26.3888 0 34 7.61116 34 17ZM4.25 17C4.25 24.0416 9.95837 29.75 17 29.75C24.0416 29.75 29.75 24.0416 29.75 17C29.75 9.95837 24.0416 4.25 17 4.25C9.95837 4.25 4.25 9.95837 4.25 17Z" fill="black"/>
<path d="M17 0C20.3623 0 23.6491 0.997033 26.4447 2.86502C29.2403 4.733 31.4193 7.38804 32.706 10.4944C33.9926 13.6007 34.3293 17.0189 33.6733 20.3165C33.0174 23.6142 31.3983 26.6433 29.0208 29.0208C26.6433 31.3983 23.6142 33.0174 20.3165 33.6733C17.0189 34.3293 13.6007 33.9926 10.4944 32.706C7.38804 31.4193 4.733 29.2403 2.86502 26.4447C0.997033 23.6491 -4.00948e-08 20.3623 0 17L4.25 17C4.25 19.5217 4.99777 21.9868 6.39876 24.0835C7.79975 26.1802 9.79103 27.8144 12.1208 28.7795C14.4505 29.7445 17.0141 29.997 19.4874 29.505C21.9607 29.0131 24.2325 27.7987 26.0156 26.0156C27.7987 24.2325 29.0131 21.9607 29.505 19.4874C29.997 17.0141 29.7445 14.4505 28.7795 12.1208C27.8144 9.79103 26.1802 7.79975 24.0835 6.39876C21.9868 4.99777 19.5217 4.25 17 4.25V0Z" fill="black"/>
<g clip-path="url(#clip0_34_132)">
<path d="M24.5 21H18.5L13.5 19V21H9.5V13H10.5C10.5 13 11.6 14 13 14C14.4 14 15.5 13 15.5 13H16.5L21.5 17L24 17.6C24.9 17.8 25.5 18.6 25.5 19.5V20C25.5 20.6 25.1 21 24.5 21Z" fill="black"/>
</g>
<defs>
<clipPath id="clip0_34_132">
<rect width="16" height="16" fill="white" transform="translate(9.5 9)"/>
</clipPath>
</defs>
</svg>
