<svg width="34" height="34" viewBox="0 0 34 34" fill="none" xmlns="http://www.w3.org/2000/svg">
<path opacity="0.2" d="M34 17C34 26.3888 26.3888 34 17 34C7.61116 34 0 26.3888 0 17C0 7.61116 7.61116 0 17 0C26.3888 0 34 7.61116 34 17ZM4.25 17C4.25 24.0416 9.95837 29.75 17 29.75C24.0416 29.75 29.75 24.0416 29.75 17C29.75 9.95837 24.0416 4.25 17 4.25C9.95837 4.25 4.25 9.95837 4.25 17Z" fill="black"/>
<path d="M17 0C20.8185 0 24.5258 1.28559 27.5246 3.64961C30.5233 6.01364 32.6389 9.31841 33.5303 13.0314C34.4217 16.7444 34.0371 20.6494 32.4384 24.1172C30.8398 27.585 28.1202 30.4135 24.7178 32.1471C21.3155 33.8807 17.4286 34.4183 13.6835 33.6734C9.93832 32.9284 6.55303 30.9442 4.0731 28.0406C1.59317 25.137 0.163022 21.483 0.0131065 17.6674C-0.136809 13.8518 1.00224 10.0969 3.24671 7.00765L6.68503 9.50574C5.00168 11.8227 4.14739 14.6389 4.25983 17.5006C4.37227 20.3622 5.44488 23.1027 7.30483 25.2805C9.16477 27.4582 11.7037 28.9463 14.5126 29.505C17.3215 30.0637 20.2366 29.6605 22.7884 28.3603C25.3401 27.0602 27.3798 24.9387 28.5788 22.3379C29.7778 19.7371 30.0663 16.8083 29.3977 14.0236C28.7292 11.2388 27.1425 8.76023 24.8934 6.98721C22.6444 5.21419 19.8639 4.25 17 4.25V0Z" fill="black"/>
<g clip-path="url(#clip0_34_144)">
<path d="M24.5 21H18.5L13.5 19V21H9.5V13H10.5C10.5 13 11.6 14 13 14C14.4 14 15.5 13 15.5 13H16.5L21.5 17L24 17.6C24.9 17.8 25.5 18.6 25.5 19.5V20C25.5 20.6 25.1 21 24.5 21Z" fill="black"/>
</g>
<defs>
<clipPath id="clip0_34_144">
<rect width="16" height="16" fill="white" transform="translate(9.5 9)"/>
</clipPath>
</defs>
</svg>
