<svg width="34" height="34" viewBox="0 0 34 34" fill="none" xmlns="http://www.w3.org/2000/svg">
<path opacity="0.2" d="M34 17C34 26.3888 26.3889 34 17 34C7.61117 34 1.52588e-05 26.3888 1.52588e-05 17C1.52588e-05 7.61116 7.61117 0 17 0C26.3889 0 34 7.61116 34 17ZM4.25002 17C4.25002 24.0416 9.95838 29.75 17 29.75C24.0416 29.75 29.75 24.0416 29.75 17C29.75 9.95837 24.0416 4.25 17 4.25C9.95838 4.25 4.25002 9.95837 4.25002 17Z" fill="black"/>
<path d="M17 0C21.0478 0 24.9627 1.44429 28.0406 4.0731C31.1186 6.7019 33.1575 10.3427 33.7907 14.3406C34.4239 18.3385 33.6098 22.4312 31.4949 25.8825C29.38 29.3338 26.1029 31.9171 22.2533 33.168C18.4037 34.4188 14.234 34.255 10.4944 32.706C6.75476 31.1569 3.69055 28.3244 1.8529 24.7178C0.0152632 21.1113 -0.475203 16.9673 0.469726 13.0314C1.41466 9.09552 3.73296 5.62592 7.00766 3.24671L9.50575 6.68503C7.04973 8.46944 5.311 11.0716 4.6023 14.0236C3.8936 16.9755 4.26145 20.0834 5.63968 22.7884C7.01791 25.4933 9.31607 27.6177 12.1208 28.7795C14.9255 29.9412 18.0528 30.0641 20.94 29.126C23.8272 28.1879 26.285 26.2503 27.8712 23.6619C29.4574 21.0734 30.0679 18.0039 29.593 15.0055C29.1181 12.007 27.5889 9.27643 25.2805 7.30482C22.972 5.33322 20.0358 4.25 17 4.25V0Z" fill="black"/>
<g clip-path="url(#clip0_34_150)">
<path d="M24.5 21H18.5L13.5 19V21H9.50002V13H10.5C10.5 13 11.6 14 13 14C14.4 14 15.5 13 15.5 13H16.5L21.5 17L24 17.6C24.9 17.8 25.5 18.6 25.5 19.5V20C25.5 20.6 25.1 21 24.5 21Z" fill="black"/>
</g>
<defs>
<clipPath id="clip0_34_150">
<rect width="16" height="16" fill="white" transform="translate(9.50002 9)"/>
</clipPath>
</defs>
</svg>
