<svg width="34" height="34" viewBox="0 0 34 34" fill="none" xmlns="http://www.w3.org/2000/svg">
<path opacity="0.2" d="M34 17C34 26.3888 26.3889 34 17 34C7.61119 34 3.05176e-05 26.3888 3.05176e-05 17C3.05176e-05 7.61116 7.61119 0 17 0C26.3889 0 34 7.61116 34 17ZM4.25003 17C4.25003 24.0416 9.9584 29.75 17 29.75C24.0417 29.75 29.75 24.0416 29.75 17C29.75 9.95837 24.0417 4.25 17 4.25C9.9584 4.25 4.25003 9.95837 4.25003 17Z" fill="black"/>
<path d="M17 0C21.2778 0 25.3984 1.61275 28.5396 4.51652C31.6809 7.42028 33.612 11.4016 33.9476 15.6662C34.2833 19.9308 32.9988 24.1652 30.3504 27.5246C27.7021 30.884 23.8845 33.1215 19.6594 33.7907C15.4343 34.4599 11.1122 33.5116 7.55534 31.135C3.99848 28.7584 1.46837 25.1282 0.469742 20.9686C-0.528888 16.809 0.0773797 12.4258 2.1676 8.69344C4.25782 4.96108 7.67832 2.15395 11.7467 0.832039L13.0601 4.87403C10.0087 5.86546 7.44337 7.97081 5.87571 10.7701C4.30804 13.5693 3.85334 16.8567 4.60231 19.9764C5.35129 23.0961 7.24887 25.8188 9.91651 27.6012C12.5841 29.3837 15.8257 30.0949 18.9946 29.593C22.1634 29.0911 25.0266 27.413 27.0128 24.8934C28.9991 22.3739 29.9625 19.1981 29.7107 15.9996C29.459 12.8012 28.0107 9.81521 25.6547 7.63739C23.2988 5.45956 20.2084 4.25 17 4.25V0Z" fill="black"/>
<g clip-path="url(#clip0_34_156)">
<path d="M24.5 21H18.5L13.5 19V21H9.50003V13H10.5C10.5 13 11.6 14 13 14C14.4 14 15.5 13 15.5 13H16.5L21.5 17L24 17.6C24.9 17.8 25.5 18.6 25.5 19.5V20C25.5 20.6 25.1 21 24.5 21Z" fill="black"/>
</g>
<defs>
<clipPath id="clip0_34_156">
<rect width="16" height="16" fill="white" transform="translate(9.50003 9)"/>
</clipPath>
</defs>
</svg>
